# xmcd
#
# Track frame offsets:
#	150
#	18859
#	40508
#	59160
#	70539
#	85608
#	105553
#	125502
#	149832
#	164075
#	186132
#	199231
#	211285
#
# Disc length: 2986 seconds
#
# Revision: 0
# Processed by: cddbd v1.5.2PL0 Copyright (c) Steve Scherf et al.
# Submitted via: EasyCDDAExtractor 4.5.0.1
#
DISCID=bb0ba80d
DTITLE=Billy Barnett Band - Faith in You
DYEAR=2004
DGENRE=Blues
TTITLE0=Faith In You
TTITLE1=Cry Baby
TTITLE2=I'm Alive
TTITLE3=Beatle Bob
TTITLE4=Cajun Train
TTITLE5=Rain Sweet Rain
TTITLE6=What Your Worth
TTITLE7=Thelonious Funk
TTITLE8=Still Time to Try
TTITLE9=Well Well Well
TTITLE10=Shake Down
TTITLE11=Lane Change
TTITLE12=Will's Song
EXTD=
EXTT0=
EXTT1=
EXTT2=
EXTT3=
EXTT4=
EXTT5=
EXTT6=
EXTT7=
EXTT8=
EXTT9=
EXTT10=
EXTT11=
EXTT12=
PLAYORDER=
